<svg id="Layer_1" data-name="Layer 1" xmlns="http://www.w3.org/2000/svg" viewBox="0 0 79.75 34.35"><defs><style>.cls-1{fill:#fff;}.cls-2{isolation:isolate;}.cls-3{fill:#353434;}</style></defs><title>LOGO белый 2</title><path class="cls-1" d="M49.06,15.72a15.56,15.56,0,0,0-1.69-7.5A14.31,14.31,0,0,0,42.29,3.4C37.68.57,32-.83,26.75.51S16,7.68,15.88,13.1a2.17,2.17,0,0,1-1.21.57,36.11,36.11,0,0,1-6.17.45C8.17,10.81,8.4,8,7.79,4.21,5.32,4.14,3,3.87.11,4A169.83,169.83,0,0,0,1.17,29.72a47.7,47.7,0,0,0,7.33.44c.35-3.55.14-5.66.32-8.93,1.12-.46,4.44-.25,5.61.08,1.77.5,1.45,1.07,1.91,2.85a11.15,11.15,0,0,0,3.77,5.52A7.29,7.29,0,0,0,24.5,31.6c4.09.41,8.24.8,12.29,0s8-2.8,10.18-6.3C48.73,22.52,49.13,19.05,49.06,15.72Zm-8.58,1.19C40.11,19.43,39,22,36.85,23.38a8,8,0,0,1-5.68,1.07,15.92,15.92,0,0,1-5.61-1.74A8.24,8.24,0,0,1,23.45,20a7.64,7.64,0,0,1-.81-3.58,7.18,7.18,0,0,1,2.29-6A9.36,9.36,0,0,1,29.6,8.05a10.84,10.84,0,0,1,4.15.12,6.76,6.76,0,0,1,3.46,1.7,8.77,8.77,0,0,1,2.6,2.37,6.89,6.89,0,0,1,.68,4.68Z" transform="translate(-0.01 0)"/><g class="cls-2"><path class="cls-3" d="M42.6,24.57a5.42,5.42,0,0,0-.24.59,1.86,1.86,0,0,0-.12.6.47.47,0,0,0,.07.27.28.28,0,0,0,.25.1,1.62,1.62,0,0,0,.58-.14,6.09,6.09,0,0,0,.75-.37q.4-.23.84-.52l.87-.61.83-.63.7-.58a.52.52,0,0,1,.21-.11l.21,0a.48.48,0,0,1,.37.16.58.58,0,0,1,.14.41,1.12,1.12,0,0,1-.16.52,1.75,1.75,0,0,1-.54.56q-.71.65-1.43,1.24a14.45,14.45,0,0,1-1.43,1,8,8,0,0,1-1.42.71,3.84,3.84,0,0,1-1.37.27,2.08,2.08,0,0,1-.76-.12,1.27,1.27,0,0,1-.49-.33,1.24,1.24,0,0,1-.26-.5,2.32,2.32,0,0,1-.08-.61,4.07,4.07,0,0,1,.16-1.11,6.83,6.83,0,0,1,.38-1q.39-.86.79-1.72L42.2,21l3.36-7.14a1.24,1.24,0,0,1,.54-.61,1.45,1.45,0,0,1,.68-.18,1.1,1.1,0,0,1,.63.19.68.68,0,0,1,.28.61,1.09,1.09,0,0,1-.09.42,4.59,4.59,0,0,1-.24.48l-.66,1.27-.82,1.64L45,19.57l-.9,1.87-.82,1.72Z" transform="translate(-0.01 0)"/><path class="cls-3" d="M58.64,24.58l-.53.52q-.33.33-.76.72t-.91.78a10.62,10.62,0,0,1-1,.71,6.79,6.79,0,0,1-1,.53,2.38,2.38,0,0,1-.92.21,1.26,1.26,0,0,1-.66-.17,1.47,1.47,0,0,1-.46-.43,1.93,1.93,0,0,1-.27-.6,2.7,2.7,0,0,1-.09-.69,3.14,3.14,0,0,1,0-.46,2,2,0,0,1,.11-.43q-.34.47-.78,1a7.63,7.63,0,0,1-.94.9,5.36,5.36,0,0,1-1.05.66,2.57,2.57,0,0,1-1.11.26,2.33,2.33,0,0,1-.67-.12,2.22,2.22,0,0,1-1.3-1.07,2.1,2.1,0,0,1-.23-1,5.17,5.17,0,0,1,.14-1.09,7.88,7.88,0,0,1,.42-1.31,8,8,0,0,1,.72-1.34,5.93,5.93,0,0,1,1-1.19A5.13,5.13,0,0,1,49.79,20a4.32,4.32,0,0,1,1.71-.33,2.68,2.68,0,0,1,.85.12,3.5,3.5,0,0,1,.62.27,3,3,0,0,1,.51.39l.39-.19.35-.14a1,1,0,0,1,1,.17.67.67,0,0,1,.27.51.57.57,0,0,1,0,.12c0,.14-.09.32-.17.53l-.26.71-.29.82c-.1.29-.19.56-.27.84s-.15.53-.2.77a3,3,0,0,0-.08.62,1.19,1.19,0,0,0,.11.55.39.39,0,0,0,.38.21,1,1,0,0,0,.39-.1,3.91,3.91,0,0,0,.49-.28q.27-.18.55-.4l.55-.46q.62-.55,1.32-1.26a.55.55,0,0,1,.34-.14.44.44,0,0,1,.37.21.83.83,0,0,1,.15.48A.7.7,0,0,1,58.64,24.58ZM51,21.72A2.08,2.08,0,0,0,50,22a3.08,3.08,0,0,0-.86.7,3.5,3.5,0,0,0-.6,1,2.82,2.82,0,0,0-.22,1.08,4,4,0,0,0,0,.46,1.31,1.31,0,0,0,.13.44.9.9,0,0,0,.28.33.82.82,0,0,0,.49.13,1.09,1.09,0,0,0,.57-.21,4.84,4.84,0,0,0,.68-.55,8.67,8.67,0,0,0,.68-.74q.33-.4.6-.79a8.06,8.06,0,0,0,.43-.7,1.15,1.15,0,0,0,.17-.46.58.58,0,0,0-.14-.38,1.38,1.38,0,0,0-.35-.29,1.75,1.75,0,0,0-.45-.18A1.69,1.69,0,0,0,51,21.72Z" transform="translate(-0.01 0)"/><path class="cls-3" d="M59.26,21a1.71,1.71,0,0,1,.55-.71,1.13,1.13,0,0,1,.65-.23.69.69,0,0,1,.48.19.74.74,0,0,1,.21.57,1.57,1.57,0,0,1,0,.31,1.56,1.56,0,0,1-.12.35,3.45,3.45,0,0,1,.7-.64,6.4,6.4,0,0,1,1-.59,7.34,7.34,0,0,1,1.13-.43,4.06,4.06,0,0,1,1.1-.17,1.63,1.63,0,0,1,1,.28,1.1,1.1,0,0,1,.39,1,3.06,3.06,0,0,1-.12.83,6.3,6.3,0,0,1-.32.87c-.13.29-.27.57-.43.85s-.32.54-.47.78l-.43.67q-.19.3-.3.5a.63.63,0,0,0-.14.41.23.23,0,0,0,.06.15.22.22,0,0,0,.18.07l.18,0a.66.66,0,0,0,.24-.12A10,10,0,0,0,66,25.4c.42-.22.82-.46,1.2-.7s.74-.49,1.06-.74.59-.47.8-.67a.59.59,0,0,1,.18-.11.49.49,0,0,1,.17,0,.34.34,0,0,1,.29.14.6.6,0,0,1,.11.37,1.69,1.69,0,0,1-.22.76,2.43,2.43,0,0,1-.68.79L67.71,26q-.53.38-1.07.7a11.31,11.31,0,0,1-1.17.61,11.13,11.13,0,0,1-1.47.53,4.82,4.82,0,0,1-.53.13A2.44,2.44,0,0,1,63,28a1.06,1.06,0,0,1-.86-.33,1.4,1.4,0,0,1-.27-.91c0-.05,0-.1,0-.15s0-.1,0-.16a2.51,2.51,0,0,1,.18-.75,8.16,8.16,0,0,1,.39-.84c.15-.29.31-.57.48-.86l.47-.81q.22-.38.36-.68a1.2,1.2,0,0,0,.14-.49.43.43,0,0,0-.09-.28.34.34,0,0,0-.28-.12,2.39,2.39,0,0,0-1.34.42,6.16,6.16,0,0,0-1.19,1,11.84,11.84,0,0,0-1,1.3l-.82,1.23a6.83,6.83,0,0,0-.4.78c-.12.28-.25.54-.38.78a2.46,2.46,0,0,1-.45.6.87.87,0,0,1-.63.24.78.78,0,0,1-.61-.24.86.86,0,0,1-.22-.6,2,2,0,0,1,.15-.61c.1-.28.24-.61.4-1s.34-.77.55-1.19l.61-1.26L58.8,22Q59.08,21.44,59.26,21Z" transform="translate(-0.01 0)"/><path class="cls-3" d="M73.16,19.72a2.68,2.68,0,0,1,.85.12,3.5,3.5,0,0,1,.62.27,3.06,3.06,0,0,1,.51.39l.33-.19a2.41,2.41,0,0,1,.34-.14,1.21,1.21,0,0,1,.38-.06,1.24,1.24,0,0,1,.75.2.58.58,0,0,1,.27.47.6.6,0,0,1-.08.29L74.54,26l.21-.19q1.31-.76,2.15-1.2t1.34-.65a5.31,5.31,0,0,1,.71-.26l.27,0a.46.46,0,0,1,.39.19.81.81,0,0,1,.14.48,1.34,1.34,0,0,1-.18.65,1,1,0,0,1-.56.48c-.33.17-.72.35-1.16.55s-.9.41-1.38.65-1,.5-1.45.79a10.45,10.45,0,0,0-1.36,1l-2.15,3.89q-.27.63-.48,1a3.25,3.25,0,0,1-.43.63,1.19,1.19,0,0,1-.43.32,1.37,1.37,0,0,1-.51.09A.84.84,0,0,1,69,34a1.09,1.09,0,0,1-.25-.72,3.11,3.11,0,0,1,.21-1A8.44,8.44,0,0,1,69.54,31a14.84,14.84,0,0,1,.92-1.43c.36-.5.76-1,1.21-1.52L73,26.33a6.9,6.9,0,0,1-.83.66,5.47,5.47,0,0,1-.79.45,3.91,3.91,0,0,1-.7.25,2.56,2.56,0,0,1-.57.08,1.69,1.69,0,0,1-.82-.21,2,2,0,0,1-.65-.57,2.85,2.85,0,0,1-.43-.86A3.63,3.63,0,0,1,68.11,25a5,5,0,0,1,.47-2.2,5.56,5.56,0,0,1,1.21-1.68,5.45,5.45,0,0,1,1.63-1.07A4.44,4.44,0,0,1,73.16,19.72Zm-.42,1.95a2.13,2.13,0,0,0-1,.26,3.07,3.07,0,0,0-.86.69,3.33,3.33,0,0,0-.6,1A3,3,0,0,0,70,24.74a2.85,2.85,0,0,0,0,.38,1.13,1.13,0,0,0,.12.38.79.79,0,0,0,.28.29.92.92,0,0,0,.5.12,1.05,1.05,0,0,0,.55-.21,4.76,4.76,0,0,0,.65-.52,7.68,7.68,0,0,0,.66-.7q.32-.38.58-.75a5.83,5.83,0,0,0,.42-.66,1.08,1.08,0,0,0,.16-.44.7.7,0,0,0-.13-.43,1.14,1.14,0,0,0-.33-.3,1.57,1.57,0,0,0-.41-.18A1.49,1.49,0,0,0,72.74,21.67Z" transform="translate(-0.01 0)"/></g></svg>